<mxfile host="app.diagrams.net" modified="2023-06-21T09:04:51.563Z" agent="Mozilla/5.0 (Windows NT 10.0; Win64; x64) AppleWebKit/537.36 (KHTML, like Gecko) Chrome/114.0.0.0 Safari/537.36" version="21.5.0" etag="jKZLMYtIVT8khkgdDe9c" type="github">
  <diagram name="Page-1" id="M6gqRsxny9OUNBbnPz9Q">
    <mxGraphModel>
      <root>
        <mxCell id="0" />
        <mxCell id="1" parent="0" />
      </root>
    </mxGraphModel>
  </diagram>
</mxfile>
